<svg width="45" height="45" viewBox="0 0 45 45" fill="none" xmlns="http://www.w3.org/2000/svg">
<g clip-path="url(#clip0_1_593)">
<path d="M31.0631 13.6331L28.1006 15.7069C27.8751 15.8409 27.6803 16.0207 27.5288 16.2349C27.3773 16.449 27.2725 16.6926 27.2212 16.9499C27.17 17.2071 27.1734 17.4723 27.2312 17.7281C27.289 17.984 27.4 18.2248 27.5569 18.435L29.6812 21.4688C29.9265 21.8182 30.2836 22.0735 30.6936 22.1924C31.1036 22.3113 31.542 22.2868 31.9361 22.1228C32.3303 21.9589 32.6567 21.6653 32.8614 21.2907C33.0661 20.916 33.1368 20.4828 33.0619 20.0625C33.9552 20.3121 34.8253 20.6383 35.6625 21.0375C36.4538 21.4275 36.96 21.8025 37.245 22.1081C37.5975 22.485 37.4137 22.7681 37.1062 23.04L36.8887 23.2181C36.27 23.7056 35.2575 24.2288 33.84 24.6994C31.0237 25.6388 27.015 26.25 22.5 26.25C17.985 26.25 13.9762 25.6369 11.16 24.6994C9.7425 24.2269 8.73 23.7056 8.11125 23.2181L7.87875 23.0287C7.58437 22.7756 7.395 22.5131 7.71375 22.1512C7.9575 21.8738 8.39812 21.5269 9.10125 21.1575C10.5094 20.415 12.6394 19.7513 15.3075 19.3088C15.5522 19.2705 15.7869 19.1842 15.9981 19.0547C16.2093 18.9252 16.3927 18.7552 16.5377 18.5545C16.6828 18.3537 16.7867 18.1262 16.8433 17.8851C16.9 17.644 16.9083 17.394 16.8678 17.1497C16.8273 16.9053 16.7388 16.6714 16.6074 16.4614C16.476 16.2515 16.3043 16.0696 16.1022 15.9264C15.9001 15.7832 15.6716 15.6815 15.43 15.627C15.1884 15.5726 14.9383 15.5666 14.6944 15.6094C11.805 16.0894 9.24562 16.8412 7.35563 17.8387C5.62125 18.75 3.75 20.2556 3.75 22.5C3.75 24.0975 4.72313 25.3219 5.79 26.1619C6.87938 27.0206 8.34 27.7106 9.975 28.2562C13.2656 29.3531 17.6944 30 22.5 30C27.3056 30 31.7344 29.3531 35.025 28.2562C36.6619 27.7125 38.1206 27.0187 39.21 26.1619C40.2787 25.3219 41.25 24.0994 41.25 22.5C41.25 21.3075 40.6969 20.31 39.9862 19.5469C39.285 18.7969 38.3494 18.18 37.32 17.6719C36.2606 17.1506 35.01 16.6969 33.6187 16.3219C33.8973 15.9678 34.039 15.5253 34.0181 15.0753C33.9971 14.6253 33.8148 14.1979 33.5046 13.8713C33.1943 13.5447 32.7769 13.3407 32.3286 13.2966C31.8802 13.2525 31.431 13.3732 31.0631 13.6331ZM22.5 7.5C22.0027 7.5 21.5258 7.69754 21.1742 8.04918C20.8225 8.40081 20.625 8.87772 20.625 9.375V24.375H24.375V9.375C24.375 8.87772 24.1775 8.40081 23.8258 8.04918C23.4742 7.69754 22.9973 7.5 22.5 7.5ZM24.375 35.625V31.875H20.625V35.625C20.625 36.1223 20.8225 36.5992 21.1742 36.9508C21.5258 37.3025 22.0027 37.5 22.5 37.5C22.9973 37.5 23.4742 37.3025 23.8258 36.9508C24.1775 36.5992 24.375 36.1223 24.375 35.625Z" fill="black"/>
</g>
<defs>
<clipPath id="clip0_1_593">
<rect width="45" height="45" fill="white" transform="matrix(-1 0 0 1 45 0)"/>
</clipPath>
</defs>
</svg>
