 <svg
          width="57"
          height="568"
          viewBox="0 0 57 568"
          fill="none"
          xmlns="http://www.w3.org/2000/svg"
        >
          <path
            d="M1.715 523.801V522.801H0.714996V523.801H1.715ZM13.727 523.801H14.727V522.801H13.727V523.801ZM13.727 538.277H12.727V539.277H13.727V538.277ZM56 538.277H57V537.277H56V538.277ZM56 553.369V554.369H57V553.369H56ZM13.727 553.369V552.369H12.727V553.369H13.727ZM13.727 567.691V568.691H14.727V567.691H13.727ZM1.715 567.691H0.714996V568.691H1.715V567.691ZM1.715 524.801H13.727V522.801H1.715V524.801ZM12.727 523.801V538.277H14.727V523.801H12.727ZM13.727 539.277H56V537.277H13.727V539.277ZM55 538.277V553.369H57V538.277H55ZM56 552.369H13.727V554.369H56V552.369ZM12.727 553.369V567.691H14.727V553.369H12.727ZM13.727 566.691H1.715V568.691H13.727V566.691ZM2.715 567.691L2.715 523.801H0.714996L0.714996 567.691H2.715ZM23.044 484.876V483.876H22.044V484.876H23.044ZM35.595 484.876H36.595V483.876H35.595V484.876ZM35.595 519.757V520.757H36.595V519.757H35.595ZM23.044 519.757H22.044V520.757H23.044V519.757ZM23.044 485.876H35.595V483.876H23.044V485.876ZM34.595 484.876L34.595 519.757H36.595V484.876H34.595ZM35.595 518.757H23.044V520.757H35.595V518.757ZM24.044 519.757L24.044 484.876H22.044L22.044 519.757H24.044ZM52.073 468.774L52.8742 469.372L52.8791 469.365L52.073 468.774ZM39.137 475.319H38.137V476.375L39.192 476.317L39.137 475.319ZM39.137 459.226L39.0562 458.229L38.137 458.303V459.226H39.137ZM43.295 457.532L44.0402 458.198L43.295 457.532ZM43.603 450.371L44.3974 449.763L44.3923 449.757L43.603 450.371ZM36.981 451.218L36.1183 450.712L36.981 451.218ZM34.055 458.456L35.0037 458.772L35.0066 458.763L34.055 458.456ZM30.667 467.08L31.5528 467.544L31.5594 467.531L31.5656 467.519L30.667 467.08ZM25.816 472.778L26.4099 473.582L26.4207 473.574L26.4313 473.566L25.816 472.778ZM8.491 472.547L9.06904 471.731L9.06108 471.725L8.491 472.547ZM2.793 465.309L1.86992 465.693L1.86992 465.693L2.793 465.309ZM5.334 439.745L6.11695 440.367L6.12163 440.361L6.12622 440.355L5.334 439.745ZM17.731 433.662H18.731V432.612L17.683 432.663L17.731 433.662ZM17.731 450.063L17.7622 451.062L18.731 451.032V450.063H17.731ZM14.035 451.603L14.7824 452.267L14.7913 452.257L14.7999 452.247L14.035 451.603ZM13.804 457.994L14.5368 457.313L13.804 457.994ZM19.348 457.917L20.0551 458.624L20.0787 458.6L20.1006 458.575L19.348 457.917ZM21.273 454.914L22.1751 455.345L22.1829 455.329L22.1901 455.312L21.273 454.914ZM23.275 449.678L24.2173 450.013L24.2208 450.002L23.275 449.678ZM26.817 441.208L27.6988 441.679L27.7053 441.667L27.7114 441.655L26.817 441.208ZM31.668 435.433L32.2711 436.23L32.282 436.222L32.2927 436.214L31.668 435.433ZM48.223 435.433L47.6839 436.275L47.69 436.279L47.6961 436.283L48.223 435.433ZM54.306 442.44L53.4056 442.875L53.4086 442.881L54.306 442.44ZM55.539 453.22C55.539 459.376 54.0893 464.338 51.2669 468.182L52.8791 469.365C56.0114 465.099 57.539 459.692 57.539 453.22H55.539ZM51.2718 468.175C48.4407 471.966 44.4174 474.026 39.082 474.32L39.192 476.317C45.0472 475.995 49.6479 473.692 52.8742 469.372L51.2718 468.175ZM40.137 475.319V459.226H38.137V475.319H40.137ZM39.2178 460.222C41.2571 460.057 42.9324 459.437 44.0402 458.198L42.5498 456.865C41.9123 457.577 40.8156 458.086 39.0562 458.229L39.2178 460.222ZM44.0402 458.198C45.1053 457.008 45.604 455.499 45.604 453.759H43.604C43.604 455.099 43.2301 456.105 42.5498 456.865L44.0402 458.198ZM45.604 453.759C45.604 452.211 45.2296 450.852 44.3974 449.763L42.8086 450.978C43.3111 451.635 43.604 452.534 43.604 453.759H45.604ZM44.3923 449.757C43.473 448.575 42.1988 447.985 40.677 447.985V449.985C41.6192 449.985 42.2957 450.319 42.8136 450.985L44.3923 449.757ZM40.677 447.985C38.6959 447.985 37.1521 448.948 36.1183 450.712L37.8437 451.723C38.5553 450.51 39.4755 449.985 40.677 449.985V447.985ZM36.1183 450.712C35.188 452.299 34.1858 454.798 33.1034 458.148L35.0066 458.763C36.0802 455.44 37.0287 453.114 37.8437 451.723L36.1183 450.712ZM33.1063 458.139C31.9332 461.659 30.8198 464.488 29.7684 466.641L31.5656 467.519C32.6702 465.257 33.8154 462.337 35.0037 458.772L33.1063 458.139ZM29.7812 466.616C28.7241 468.634 27.2041 470.426 25.2007 471.989L26.4313 473.566C28.6372 471.844 30.3513 469.838 31.5528 467.544L29.7812 466.616ZM25.2221 471.973C23.2814 473.406 20.7094 474.165 17.423 474.165V476.165C21.0152 476.165 24.0386 475.332 26.4099 473.582L25.2221 471.973ZM17.423 474.165C14.106 474.165 11.3387 473.338 9.06902 471.731L7.91298 473.363C10.5713 475.246 13.7586 476.165 17.423 476.165V474.165ZM9.06108 471.725C6.7168 470.098 4.93278 467.844 3.71607 464.924L1.86992 465.693C3.21988 468.933 5.23453 471.504 7.92091 473.368L9.06108 471.725ZM3.71607 464.924C2.49136 461.985 1.868 458.628 1.868 454.837H-0.132002C-0.132002 458.848 0.527967 462.473 1.86992 465.693L3.71607 464.924ZM1.868 454.837C1.868 448.676 3.3194 443.888 6.11695 440.367L4.55104 439.123C1.39392 443.096 -0.132002 448.369 -0.132002 454.837H1.868ZM6.12622 440.355C8.85131 436.817 12.6956 434.905 17.779 434.661L17.683 432.663C12.089 432.932 7.66869 435.075 4.54177 439.134L6.12622 440.355ZM16.731 433.662V450.063H18.731V433.662H16.731ZM17.6998 449.063C15.8604 449.121 14.324 449.707 13.2701 450.959L14.7999 452.247C15.3887 451.548 16.3162 451.107 17.7622 451.062L17.6998 449.063ZM13.2876 450.938C12.2717 452.081 11.803 453.541 11.803 455.222H13.803C13.803 453.925 14.1556 452.972 14.7824 452.267L13.2876 450.938ZM11.803 455.222C11.803 456.562 12.2061 457.742 13.0712 458.674L14.5368 457.313C14.0672 456.808 13.803 456.14 13.803 455.222H11.803ZM13.0712 458.674C13.9739 459.646 15.219 460.072 16.653 460.072V458.072C15.623 458.072 14.9687 457.778 14.5368 457.313L13.0712 458.674ZM16.653 460.072C17.9622 460.072 19.1102 459.569 20.0551 458.624L18.6409 457.21C18.0458 457.805 17.3971 458.072 16.653 458.072V460.072ZM20.1006 458.575C20.8897 457.673 21.5787 456.592 22.1751 455.345L20.3709 454.482C19.8379 455.597 19.2436 456.517 18.5954 457.258L20.1006 458.575ZM22.1901 455.312C22.7173 454.1 23.3937 452.329 24.2172 450.013L22.3328 449.343C21.5136 451.647 20.8554 453.366 20.3559 454.515L22.1901 455.312ZM24.2208 450.002C25.3911 446.593 26.5519 443.824 27.6988 441.679L25.9352 440.736C24.7208 443.006 23.5202 445.884 22.3292 449.353L24.2208 450.002ZM27.7114 441.655C28.7688 439.54 30.2836 437.733 32.2711 436.23L31.0649 434.635C28.8431 436.315 27.1239 438.358 25.9226 440.76L27.7114 441.655ZM32.2927 436.214C34.1337 434.741 36.517 433.969 39.522 433.969V431.969C36.1616 431.969 33.309 432.839 31.0433 434.652L32.2927 436.214ZM39.522 433.969C42.5772 433.969 45.2882 434.742 47.6839 436.275L48.7621 434.59C46.0244 432.838 42.9348 431.969 39.522 431.969V433.969ZM47.6961 436.283C50.0807 437.761 51.9883 439.942 53.4056 442.875L55.2064 442.005C53.6464 438.777 51.4986 436.287 48.7499 434.583L47.6961 436.283ZM53.4086 442.881C54.8159 445.744 55.539 449.18 55.539 453.22H57.539C57.539 448.944 56.7734 445.193 55.2034 441.999L53.4086 442.881ZM1.715 377.366V376.366H0.714996V377.366H1.715ZM56 377.366H57V376.366H56V377.366ZM56 392.458V393.458H57V392.458H56ZM34.209 392.458V391.458H33.209V392.458H34.209ZM34.209 410.861H33.209V411.861H34.209V410.861ZM56 410.861H57V409.861H56V410.861ZM56 425.953V426.953H57V425.953H56ZM1.715 425.953H0.714996V426.953H1.715V425.953ZM1.715 410.861V409.861H0.714996V410.861H1.715ZM22.12 410.861V411.861H23.12V410.861H22.12ZM22.12 392.458H23.12V391.458H22.12V392.458ZM1.715 392.458H0.714996V393.458H1.715V392.458ZM1.715 378.366H56V376.366H1.715V378.366ZM55 377.366V392.458H57V377.366H55ZM56 391.458H34.209V393.458H56V391.458ZM33.209 392.458L33.209 410.861H35.209V392.458H33.209ZM34.209 411.861H56V409.861H34.209V411.861ZM55 410.861V425.953H57V410.861H55ZM56 424.953H1.715V426.953H56V424.953ZM2.715 425.953L2.715 410.861H0.714996L0.714996 425.953H2.715ZM1.715 411.861H22.12V409.861H1.715V411.861ZM23.12 410.861L23.12 392.458H21.12L21.12 410.861H23.12ZM22.12 391.458H1.715V393.458H22.12V391.458ZM2.715 392.458V377.366H0.714996V392.458H2.715ZM1.715 353.637V352.637H0.714996V353.637H1.715ZM56 353.637H57V352.637H56V353.637ZM56 368.729V369.729H57V368.729H56ZM1.715 368.729H0.714996V369.729H1.715V368.729ZM1.715 354.637H56V352.637H1.715V354.637ZM55 353.637V368.729H57V353.637H55ZM56 367.729H1.715V369.729H56V367.729ZM2.715 368.729L2.715 353.637H0.714996L0.714996 368.729H2.715ZM56 317.553L56.4741 318.434L57 318.151V317.553H56ZM35.98 328.333L35.5059 327.453L34.98 327.736V328.333H35.98ZM35.98 329.95H34.98V330.95H35.98V329.95ZM56 329.95H57V328.95H56V329.95ZM56 345.042V346.042H57V345.042H56ZM1.715 345.042H0.714996V346.042H1.715V345.042ZM4.025 310.161L4.91647 310.615L4.92245 310.603L4.025 310.161ZM10.262 303.309L10.7617 304.175L10.769 304.17L10.262 303.309ZM28.896 304.078L28.3078 304.887L28.3105 304.889L28.896 304.078ZM34.825 312.934L33.8679 313.223L34.2333 314.431L35.3255 313.799L34.825 312.934ZM56 300.69H57V298.957L55.4995 299.825L56 300.69ZM25.662 329.95V330.95H26.662V329.95H25.662ZM24.199 317.861L23.474 318.55L24.199 317.861ZM15.883 317.938L16.5901 318.646L16.6078 318.628L16.6245 318.609L15.883 317.938ZM14.343 329.95H13.343V330.95H14.343V329.95ZM55.5259 316.673L35.5059 327.453L36.4541 329.214L56.4741 318.434L55.5259 316.673ZM34.98 328.333V329.95H36.98V328.333H34.98ZM35.98 330.95H56V328.95H35.98V330.95ZM55 329.95V345.042H57V329.95H55ZM56 344.042H1.715V346.042H56V344.042ZM2.715 345.042V321.249H0.714996V345.042H2.715ZM2.715 321.249C2.715 317 3.46515 313.469 4.91639 310.615L3.13361 309.708C1.50484 312.911 0.714996 316.772 0.714996 321.249H2.715ZM4.92245 310.603C6.33231 307.734 8.28047 305.606 10.7617 304.175L9.76228 302.442C6.90486 304.091 4.69502 306.531 3.12755 309.72L4.92245 310.603ZM10.769 304.17C13.2209 302.728 15.9949 301.999 19.117 301.999V299.999C15.6684 299.999 12.5391 300.809 9.75498 302.447L10.769 304.17ZM19.117 301.999C22.6148 301.999 25.6658 302.966 28.3078 304.887L29.4842 303.27C26.4796 301.085 23.0112 299.999 19.117 299.999V301.999ZM28.3105 304.889C30.8726 306.74 32.7381 309.49 33.8679 313.223L35.7821 312.644C34.5506 308.574 32.4634 305.421 29.4815 303.268L28.3105 304.889ZM35.3255 313.799L56.5005 301.556L55.4995 299.825L34.3245 312.068L35.3255 313.799ZM55 300.69V317.553H57V300.69H55ZM26.662 329.95V322.481H24.662V329.95H26.662ZM26.662 322.481C26.662 320.286 26.1416 318.454 24.924 317.173L23.474 318.55C24.2071 319.322 24.662 320.57 24.662 322.481H26.662ZM24.924 317.173C23.7069 315.892 21.9984 315.321 19.964 315.321V317.321C21.6256 317.321 22.7404 317.778 23.474 318.55L24.924 317.173ZM19.964 315.321C17.9977 315.321 16.3441 315.938 15.1415 317.268L16.6245 318.609C17.3725 317.783 18.4396 317.321 19.964 317.321V315.321ZM15.1759 317.231C13.8999 318.507 13.343 320.317 13.343 322.481H15.343C15.343 320.642 15.8128 319.423 16.5901 318.646L15.1759 317.231ZM13.343 322.481V329.95H15.343V322.481H13.343ZM14.343 330.95H25.662V328.95H14.343V330.95ZM1.715 253.248V252.248H0.714996V253.248H1.715ZM13.727 253.248H14.727V252.248H13.727V253.248ZM13.727 267.724H12.727V268.724H13.727V267.724ZM56 267.724H57V266.724H56V267.724ZM56 282.816V283.816H57V282.816H56ZM13.727 282.816V281.816H12.727V282.816H13.727ZM13.727 297.138V298.138H14.727V297.138H13.727ZM1.715 297.138H0.714996V298.138H1.715V297.138ZM1.715 254.248H13.727V252.248H1.715V254.248ZM12.727 253.248V267.724H14.727V253.248H12.727ZM13.727 268.724H56V266.724H13.727V268.724ZM55 267.724V282.816H57V267.724H55ZM56 281.816H13.727V283.816H56V281.816ZM12.727 282.816V297.138H14.727V282.816H12.727ZM13.727 296.138H1.715V298.138H13.727V296.138ZM2.715 297.138V253.248H0.714996V297.138H2.715ZM28.126 198.276L27.1625 198.544L29.1014 198.497L28.126 198.276ZM32.9 190.73L33.5 191.53L33.5094 191.523L33.5186 191.516L32.9 190.73ZM52.073 192.655L52.8453 192.02L52.073 192.655ZM56 232.926V233.926H57V232.926H56ZM1.715 232.926H0.714996V233.926H1.715V232.926ZM5.411 193.887L6.1969 194.506L6.20173 194.499L5.411 193.887ZM23.814 191.654L23.1962 192.441L23.1987 192.443L23.814 191.654ZM23.275 217.834V218.834H24.275V217.834H23.275ZM13.727 217.834H12.727V218.834H13.727V217.834ZM35.287 204.898L36.0322 205.565L36.0407 205.556L36.0489 205.546L35.287 204.898ZM33.978 217.834H32.978V218.834H33.978V217.834ZM43.834 217.834V218.834H44.834V217.834H43.834ZM29.1014 198.497C29.7712 195.531 31.2379 193.227 33.5 191.53L32.3 189.93C29.6341 191.93 27.9182 194.657 27.1506 198.056L29.1014 198.497ZM33.5186 191.516C35.7512 189.758 38.3042 188.881 41.216 188.881V186.881C37.8651 186.881 34.8742 187.903 32.2814 189.945L33.5186 191.516ZM41.216 188.881C45.5779 188.881 48.8972 190.369 51.3007 193.291L52.8453 192.02C50.0128 188.577 46.0941 186.881 41.216 186.881V188.881ZM51.3007 193.291C53.7228 196.235 55 200.445 55 206.053H57C57 200.163 55.6592 195.441 52.8453 192.02L51.3007 193.291ZM55 206.053L55 232.926H57L57 206.053H55ZM56 231.926H1.715V233.926H56V231.926ZM2.715 232.926V206.9H0.714996V232.926H2.715ZM2.715 206.9C2.715 201.494 3.91691 197.403 6.19687 194.506L4.62513 193.269C1.97708 196.634 0.714996 201.218 0.714996 206.9H2.715ZM6.20173 194.499C8.45378 191.591 11.6106 190.113 15.806 190.113V188.113C11.0694 188.113 7.29622 189.819 4.62028 193.275L6.20173 194.499ZM15.806 190.113C18.8022 190.113 21.2438 190.907 23.1962 192.441L24.4318 190.868C22.0722 189.014 19.1751 188.113 15.806 188.113V190.113ZM23.1987 192.443C25.1212 193.943 26.4451 195.961 27.1625 198.544L29.0895 198.009C28.2669 195.047 26.7162 192.651 24.4293 190.866L23.1987 192.443ZM24.275 217.834V210.211H22.275V217.834H24.275ZM24.275 210.211C24.275 208.2 23.8644 206.505 22.8724 205.302C21.8499 204.061 20.3542 203.513 18.578 203.513V205.513C19.9331 205.513 20.786 205.915 21.3291 206.574C21.9028 207.27 22.275 208.424 22.275 210.211H24.275ZM18.578 203.513C16.761 203.513 15.2298 204.054 14.1783 205.29C13.153 206.494 12.727 208.194 12.727 210.211H14.727C14.727 208.43 15.1095 207.281 15.7012 206.586C16.2667 205.922 17.161 205.513 18.578 205.513V203.513ZM12.727 210.211V217.834H14.727V210.211H12.727ZM13.727 218.834H23.275V216.834H13.727V218.834ZM44.834 209.056C44.834 207.042 44.4157 205.344 43.407 204.141C42.3699 202.903 40.8565 202.358 39.06 202.358V204.358C40.4462 204.358 41.3197 204.763 41.874 205.425C42.4566 206.12 42.834 207.272 42.834 209.056H44.834ZM39.06 202.358C37.1943 202.358 35.629 202.952 34.5251 204.251L36.0489 205.546C36.6904 204.791 37.6404 204.358 39.06 204.358V202.358ZM34.5418 204.231C33.4483 205.454 32.978 207.14 32.978 209.133H34.978C34.978 207.43 35.3803 206.294 36.0322 205.565L34.5418 204.231ZM32.978 209.133V217.834H34.978V209.133H32.978ZM33.978 218.834H43.834V216.834H33.978V218.834ZM44.834 217.834V209.056H42.834V217.834H44.834ZM47.145 146.925L46.8313 145.976L46.145 146.202V146.925H47.145ZM47.145 166.175H46.145V166.898L46.8313 167.125L47.145 166.175ZM56 169.101H57V168.378L56.3138 168.152L56 169.101ZM56 184.963L55.6575 185.903L57 186.392V184.963H56ZM1.715 165.174H0.714996V165.874L1.37251 166.114L1.715 165.174ZM1.715 147.772L1.37368 146.832L0.714996 147.071V147.772H1.715ZM56 128.06H57V126.633L55.6587 127.12L56 128.06ZM56 143.999L56.3138 144.949L57 144.722V143.999H56ZM35.595 150.698H36.595V149.311L35.2788 149.749L35.595 150.698ZM18.039 156.55L17.7228 155.601L14.8579 156.556L17.7265 157.5L18.039 156.55ZM35.595 162.325L35.2825 163.275L36.595 163.707V162.325H35.595ZM46.145 146.925V166.175H48.145V146.925H46.145ZM46.8313 167.125L55.6862 170.051L56.3138 168.152L47.4587 165.226L46.8313 167.125ZM55 169.101V184.963H57V169.101H55ZM56.3425 184.024L2.05749 164.235L1.37251 166.114L55.6575 185.903L56.3425 184.024ZM2.715 165.174V147.772H0.714996V165.174H2.715ZM2.05631 148.712L56.3413 129L55.6587 127.12L1.37368 146.832L2.05631 148.712ZM55 128.06V143.999H57V128.06H55ZM55.6862 143.05L46.8313 145.976L47.4587 147.875L56.3138 144.949L55.6862 143.05ZM35.2788 149.749L17.7228 155.601L18.3552 157.499L35.9112 151.647L35.2788 149.749ZM17.7265 157.5L35.2825 163.275L35.9075 161.375L18.3515 155.6L17.7265 157.5ZM36.595 162.325V150.698H34.595V162.325H36.595ZM52.073 118.213L52.8742 118.812L52.8791 118.805L52.073 118.213ZM39.137 124.758H38.137V125.815L39.192 125.757L39.137 124.758ZM39.137 108.665L39.0562 107.668L38.137 107.743V108.665H39.137ZM43.295 106.971L44.0402 107.638L43.295 106.971ZM43.603 99.8101L44.3974 99.2027L44.3923 99.1962L43.603 99.8101ZM36.981 100.657L36.1183 100.151L36.981 100.657ZM34.055 107.895L35.0037 108.211L35.0066 108.203L34.055 107.895ZM30.667 116.519L31.5528 116.983L31.5594 116.971L31.5656 116.958L30.667 116.519ZM25.816 122.217L26.4099 123.022L26.4207 123.014L26.4313 123.005L25.816 122.217ZM8.491 121.986L9.06904 121.17L9.06108 121.165L8.491 121.986ZM2.793 114.748L1.86992 115.133H1.86992L2.793 114.748ZM5.334 89.1841L6.11695 89.8062L6.12163 89.8003L6.12622 89.7943L5.334 89.1841ZM17.731 83.1011H18.731V82.0519L17.683 82.1023L17.731 83.1011ZM17.731 99.5021L17.7622 100.502L18.731 100.471V99.5021H17.731ZM14.035 101.042L14.7824 101.706L14.7913 101.697L14.7999 101.686L14.035 101.042ZM13.804 107.433L14.5368 106.753L13.804 107.433ZM19.348 107.356L20.0551 108.063L20.0787 108.04L20.1006 108.015L19.348 107.356ZM21.273 104.353L22.1751 104.785L22.1829 104.768L22.1901 104.752L21.273 104.353ZM23.275 99.1171L24.2173 99.4521L24.2208 99.4418L23.275 99.1171ZM26.817 90.6471L27.6988 91.1188L27.7053 91.1067L27.7114 91.0943L26.817 90.6471ZM31.668 84.8721L32.2711 85.6698L32.282 85.6615L32.2927 85.653L31.668 84.8721ZM48.223 84.8721L47.6839 85.7144L47.69 85.7183L47.6961 85.722L48.223 84.8721ZM54.306 91.8791L53.4056 92.3143L53.4086 92.3203L54.306 91.8791ZM55.539 102.659C55.539 108.815 54.0893 113.777 51.2669 117.621L52.8791 118.805C56.0114 114.538 57.539 109.131 57.539 102.659H55.539ZM51.2718 117.615C48.4407 121.405 44.4174 123.466 39.082 123.76L39.192 125.757C45.0472 125.434 49.6479 123.131 52.8742 118.811L51.2718 117.615ZM40.137 124.758V108.665H38.137V124.758H40.137ZM39.2178 109.662C41.2571 109.497 42.9324 108.876 44.0402 107.638L42.5498 106.304C41.9123 107.017 40.8156 107.526 39.0562 107.668L39.2178 109.662ZM44.0402 107.638C45.1053 106.448 45.604 104.938 45.604 103.198H43.604C43.604 104.538 43.2301 105.544 42.5498 106.304L44.0402 107.638ZM45.604 103.198C45.604 101.651 45.2296 100.291 44.3974 99.2027L42.8086 100.418C43.3111 101.075 43.604 101.973 43.604 103.198H45.604ZM44.3923 99.1962C43.473 98.0141 42.1988 97.4241 40.677 97.4241V99.4241C41.6192 99.4241 42.2957 99.7581 42.8136 100.424L44.3923 99.1962ZM40.677 97.4241C38.6959 97.4241 37.1521 98.3879 36.1183 100.151L37.8437 101.163C38.5553 99.949 39.4755 99.4241 40.677 99.4241V97.4241ZM36.1183 100.151C35.188 101.738 34.1858 104.237 33.1034 107.588L35.0066 108.203C36.0802 104.879 37.0287 102.553 37.8437 101.163L36.1183 100.151ZM33.1063 107.579C31.9332 111.098 30.8198 113.927 29.7684 116.08L31.5656 116.958C32.6702 114.696 33.8154 111.776 35.0037 108.211L33.1063 107.579ZM29.7812 116.055C28.7241 118.073 27.2041 119.865 25.2007 121.429L26.4313 123.005C28.6372 121.284 30.3513 119.277 31.5528 116.983L29.7812 116.055ZM25.2221 121.413C23.2814 122.845 20.7094 123.604 17.423 123.604V125.604C21.0152 125.604 24.0386 124.772 26.4099 123.022L25.2221 121.413ZM17.423 123.604C14.106 123.604 11.3387 122.778 9.06902 121.17L7.91298 122.802C10.5713 124.685 13.7586 125.604 17.423 125.604V123.604ZM9.06108 121.165C6.7168 119.538 4.93278 117.284 3.71607 114.363L1.86992 115.133C3.21988 118.373 5.23453 120.944 7.92091 122.808L9.06108 121.165ZM3.71607 114.363C2.49136 111.424 1.868 108.067 1.868 104.276H-0.132002C-0.132002 108.287 0.527967 111.912 1.86992 115.133L3.71607 114.363ZM1.868 104.276C1.868 98.1156 3.3194 93.3272 6.11695 89.8062L4.55104 88.562C1.39392 92.5356 -0.132002 97.8086 -0.132002 104.276H1.868ZM6.12622 89.7943C8.85131 86.2565 12.6956 84.3444 17.779 84.1L17.683 82.1023C12.089 82.3712 7.66869 84.5144 4.54177 88.5739L6.12622 89.7943ZM16.731 83.1011V99.5021H18.731V83.1011H16.731ZM17.6998 98.5026C15.8604 98.5601 14.324 99.1465 13.2701 100.398L14.7999 101.686C15.3887 100.987 16.3162 100.547 17.7622 100.502L17.6998 98.5026ZM13.2876 100.378C12.2717 101.521 11.803 102.98 11.803 104.661H13.803C13.803 103.365 14.1556 102.412 14.7824 101.706L13.2876 100.378ZM11.803 104.661C11.803 106.002 12.2061 107.182 13.0712 108.114L14.5368 106.753C14.0672 106.247 13.803 105.579 13.803 104.661H11.803ZM13.0712 108.114C13.9739 109.086 15.219 109.511 16.653 109.511V107.511C15.623 107.511 14.9687 107.218 14.5368 106.753L13.0712 108.114ZM16.653 109.511C17.9622 109.511 19.1102 109.008 20.0551 108.063L18.6409 106.649C18.0458 107.244 17.3971 107.511 16.653 107.511V109.511ZM20.1006 108.015C20.8897 107.113 21.5787 106.032 22.1751 104.785L20.3709 103.922C19.8379 105.036 19.2436 105.957 18.5954 106.698L20.1006 108.015ZM22.1901 104.752C22.7173 103.539 23.3937 101.768 24.2172 99.4521L22.3328 98.7821C21.5136 101.086 20.8554 102.806 20.3559 103.954L22.1901 104.752ZM24.2208 99.4418C25.3911 96.0326 26.5519 93.263 27.6988 91.1188L25.9352 90.1755C24.7208 92.4459 23.5202 95.323 22.3292 98.7924L24.2208 99.4418ZM27.7114 91.0943C28.7688 88.9796 30.2836 87.1726 32.2711 85.6698L31.0649 84.0745C28.8431 85.7543 27.1239 87.7973 25.9226 90.1999L27.7114 91.0943ZM32.2927 85.653C34.1337 84.1802 36.517 83.4081 39.522 83.4081V81.4081C36.1616 81.4081 33.309 82.2787 31.0433 84.0912L32.2927 85.653ZM39.522 83.4081C42.5772 83.4081 45.2882 84.1811 47.6839 85.7144L48.7621 84.0298C46.0244 82.2778 42.9348 81.4081 39.522 81.4081V83.4081ZM47.6961 85.722C50.0807 87.2005 51.9883 89.3819 53.4056 92.3143L55.2064 91.444C53.6464 88.2164 51.4986 85.7264 48.7499 84.0222L47.6961 85.722ZM53.4086 92.3203C54.8159 95.1835 55.539 98.6193 55.539 102.659H57.539C57.539 98.383 56.7734 94.6321 55.2034 91.438L53.4086 92.3203ZM1.715 60.3001V59.3001H0.714996V60.3001H1.715ZM56 60.3001H57V59.3001H56V60.3001ZM56 75.3921V76.3921H57V75.3921H56ZM1.715 75.3921H0.714996L0.714996 76.3921H1.715L1.715 75.3921ZM1.715 61.3001H56V59.3001H1.715V61.3001ZM55 60.3001V75.3921H57V60.3001H55ZM56 74.3921H1.715L1.715 76.3921H56V74.3921ZM2.715 75.3921V60.3001H0.714996V75.3921H2.715ZM14.497 50.2426L14.0242 51.1237L14.0281 51.1259L14.497 50.2426ZM4.718 40.6946L5.58961 40.2043L5.5849 40.1961L4.718 40.6946ZM6.643 9.43256L7.42812 10.0519L7.43235 10.0465L6.643 9.43256ZM21.35 0.500549H22.35V-0.737122L21.1399 -0.477112L21.35 0.500549ZM21.35 16.7476L21.7791 17.6509L22.35 17.3796V16.7476H21.35ZM16.653 20.8286L17.4967 21.3655L17.5038 21.3541L16.653 20.8286ZM18.809 35.1506L18.1673 35.9175L18.1688 35.9188L18.809 35.1506ZM38.829 35.1506L39.4614 35.9252L39.47 35.9182L39.4785 35.9109L38.829 35.1506ZM40.908 20.8286L40.0571 21.3541L40.0643 21.3655L40.908 20.8286ZM36.211 16.7476H35.211V17.3796L35.7819 17.6509L36.211 16.7476ZM36.211 0.500549L36.4211 -0.477112L35.211 -0.737122V0.500549H36.211ZM50.995 9.43256L51.7844 8.8186L51.7801 8.81323L50.995 9.43256ZM52.92 40.6946L53.7869 41.1931L53.7916 41.1848L52.92 40.6946ZM43.141 50.2426L43.6054 51.1282L43.6119 51.1248L43.6183 51.1213L43.141 50.2426ZM28.742 52.5536C23.5447 52.5536 18.9611 51.4802 14.9659 49.3593L14.0281 51.1259C18.3489 53.4196 23.262 54.5536 28.742 54.5536V52.5536ZM14.9698 49.3614C10.9254 47.1912 7.80511 44.1431 5.58958 40.2043L3.84642 41.1848C6.25089 45.4594 9.64996 48.7766 14.0242 51.1237L14.9698 49.3614ZM5.5849 40.1961C3.32141 36.2596 2.176 31.713 2.176 26.5266H0.175999C0.175999 32.0175 1.39192 36.9162 3.85109 41.1931L5.5849 40.1961ZM2.176 26.5266C2.176 19.9396 3.94323 14.4694 7.4281 10.0519L5.85789 8.81323C2.05344 13.6357 0.175999 19.5615 0.175999 26.5266H2.176ZM7.43235 10.0465C10.8686 5.62842 15.5575 2.76807 21.5601 1.47827L21.1399 -0.477112C14.7199 0.902405 9.60403 3.9967 5.85365 8.81866L7.43235 10.0465ZM20.35 0.500549V16.7476H22.35V0.500549H20.35ZM20.9209 15.8443C18.7131 16.8931 16.9922 18.3764 15.8022 20.3031L17.5038 21.3541C18.4698 19.7901 19.8803 18.5528 21.7791 17.6509L20.9209 15.8443ZM15.8093 20.2917C14.6168 22.1656 14.036 24.3332 14.036 26.7576H16.036C16.036 24.6646 16.5331 22.8795 17.4967 21.3655L15.8093 20.2917ZM14.036 26.7576C14.036 30.5226 15.4087 33.6093 18.1673 35.9175L19.4507 34.3837C17.1786 32.4825 16.036 29.9739 16.036 26.7576H14.036ZM18.1688 35.9188C20.8601 38.1616 24.4205 39.2306 28.742 39.2306V37.2306C24.7475 37.2306 21.6859 36.2463 19.4492 34.3824L18.1688 35.9188ZM28.742 39.2306C33.1126 39.2306 36.7204 38.1628 39.4614 35.9252L38.1966 34.3759C35.9069 36.2451 32.7901 37.2306 28.742 37.2306V39.2306ZM39.4785 35.9109C42.1837 33.6003 43.525 30.5151 43.525 26.7576H41.525C41.525 29.9813 40.4023 32.4916 38.1795 34.3902L39.4785 35.9109ZM43.525 26.7576C43.525 24.3332 42.9441 22.1656 41.7517 20.2917L40.0643 21.3655C41.0278 22.8795 41.525 24.6646 41.525 26.7576H43.525ZM41.7588 20.3031C40.5688 18.3764 38.8479 16.8931 36.6401 15.8443L35.7819 17.6509C37.6807 18.5528 39.0912 19.7901 40.0572 21.3541L41.7588 20.3031ZM37.211 16.7476V0.500549H35.211V16.7476H37.211ZM36.0009 1.47827C42.0042 2.76819 46.7212 5.6297 50.2099 10.0519L51.7801 8.81323C47.9794 3.99548 42.8405 0.902283 36.4211 -0.477112L36.0009 1.47827ZM50.2057 10.0465C53.6415 14.4641 55.385 19.9363 55.385 26.5266H57.385C57.385 19.5648 55.5351 13.6411 51.7844 8.81866L50.2057 10.0465ZM55.385 26.5266C55.385 31.7167 54.2635 36.2664 52.0484 40.2043L53.7916 41.1848C56.1965 36.9095 57.385 32.0137 57.385 26.5266H55.385ZM52.0531 40.1961C49.7838 44.1426 46.659 47.1936 42.6637 49.3638L43.6183 51.1213C47.939 48.7742 51.3335 45.4598 53.7869 41.1931L52.0531 40.1961ZM42.6766 49.3569C38.6287 51.4796 33.9921 52.5536 28.742 52.5536V54.5536C34.2719 54.5536 39.2346 53.4202 43.6054 51.1282L42.6766 49.3569Z"
            fill="white"
          />
        </svg>