<svg width="45" height="45" viewBox="0 0 45 45" fill="none" xmlns="http://www.w3.org/2000/svg">
<g clip-path="url(#clip0_1_581)">
<path d="M13.9369 13.6331L16.8994 15.7069C17.1249 15.8409 17.3197 16.0207 17.4712 16.2349C17.6227 16.449 17.7275 16.6926 17.7788 16.9499C17.83 17.2071 17.8266 17.4723 17.7688 17.7281C17.711 17.984 17.6 18.2248 17.4431 18.435L15.3188 21.4688C15.0735 21.8182 14.7164 22.0735 14.3064 22.1924C13.8964 22.3113 13.458 22.2868 13.0639 22.1228C12.6697 21.9589 12.3433 21.6653 12.1386 21.2907C11.9339 20.916 11.8632 20.4828 11.9381 20.0625C11.0448 20.3121 10.1747 20.6383 9.3375 21.0375C8.54625 21.4275 8.04 21.8025 7.755 22.1081C7.4025 22.485 7.58625 22.7681 7.89375 23.04L8.11125 23.2181C8.73 23.7056 9.7425 24.2288 11.16 24.6994C13.9763 25.6388 17.985 26.25 22.5 26.25C27.015 26.25 31.0238 25.6369 33.84 24.6994C35.2575 24.2269 36.27 23.7056 36.8887 23.2181L37.1213 23.0287C37.4156 22.7756 37.605 22.5131 37.2863 22.1512C37.0425 21.8738 36.6019 21.5269 35.8988 21.1575C34.4906 20.415 32.3606 19.7513 29.6925 19.3088C29.4478 19.2705 29.2131 19.1842 29.0019 19.0547C28.7907 18.9252 28.6073 18.7552 28.4623 18.5545C28.3172 18.3537 28.2133 18.1262 28.1567 17.8851C28.1 17.644 28.0917 17.394 28.1322 17.1497C28.1727 16.9053 28.2612 16.6714 28.3926 16.4614C28.524 16.2515 28.6957 16.0696 28.8978 15.9264C29.0999 15.7832 29.3284 15.6815 29.57 15.627C29.8116 15.5726 30.0617 15.5666 30.3056 15.6094C33.195 16.0894 35.7544 16.8412 37.6444 17.8387C39.3787 18.75 41.25 20.2556 41.25 22.5C41.25 24.0975 40.2769 25.3219 39.21 26.1619C38.1206 27.0206 36.66 27.7106 35.025 28.2562C31.7344 29.3531 27.3056 30 22.5 30C17.6944 30 13.2656 29.3531 9.975 28.2562C8.33813 27.7125 6.87937 27.0187 5.79 26.1619C4.72125 25.3219 3.75 24.0994 3.75 22.5C3.75 21.3075 4.30313 20.31 5.01375 19.5469C5.715 18.7969 6.65063 18.18 7.68 17.6719C8.73938 17.1506 9.99 16.6969 11.3813 16.3219C11.1027 15.9678 10.961 15.5253 10.9819 15.0753C11.0029 14.6253 11.1852 14.1979 11.4954 13.8713C11.8057 13.5447 12.2231 13.3407 12.6714 13.2966C13.1198 13.2525 13.569 13.3732 13.9369 13.6331ZM22.5 7.5C22.9973 7.5 23.4742 7.69754 23.8258 8.04918C24.1775 8.40081 24.375 8.87772 24.375 9.375V24.375H20.625V9.375C20.625 8.87772 20.8225 8.40081 21.1742 8.04918C21.5258 7.69754 22.0027 7.5 22.5 7.5ZM20.625 35.625V31.875H24.375V35.625C24.375 36.1223 24.1775 36.5992 23.8258 36.9508C23.4742 37.3025 22.9973 37.5 22.5 37.5C22.0027 37.5 21.5258 37.3025 21.1742 36.9508C20.8225 36.5992 20.625 36.1223 20.625 35.625Z" fill="black"/>
</g>
<defs>
<clipPath id="clip0_1_581">
<rect width="45" height="45" fill="white"/>
</clipPath>
</defs>
</svg>
