<svg width="42" height="42" viewBox="0 0 42 42" fill="none" xmlns="http://www.w3.org/2000/svg">
<path d="M17.5 4.8125C19.8977 4.8122 22.2464 5.49131 24.2739 6.77113C26.3014 8.05095 27.9248 9.87909 28.9559 12.0437C29.987 14.2083 30.3837 16.6208 30.0999 19.0016C29.8161 21.3825 28.8635 23.6341 27.3525 25.4958L35.9275 34.0708C36.163 34.3047 36.301 34.6191 36.314 34.9507C36.3269 35.2823 36.2138 35.6065 35.9973 35.8581C35.7808 36.1096 35.477 36.2698 35.1472 36.3064C34.8173 36.343 34.4859 36.2532 34.2195 36.0553L34.0725 35.9275L25.4958 27.3525C23.9188 28.632 22.0578 29.5142 20.0691 29.9251C18.0803 30.336 16.022 30.2635 14.0672 29.7137C12.1123 29.164 10.3179 28.153 8.83487 26.7658C7.35183 25.3785 6.22343 23.6556 5.54452 21.7417C4.8656 19.8279 4.656 17.779 4.93333 15.7673C5.21065 13.7556 5.96681 11.8399 7.13825 10.1811C8.30968 8.52233 9.86217 7.16897 11.6652 6.23477C13.4683 5.30056 15.4693 4.81281 17.5 4.8125ZM17.5 7.4375C16.1786 7.4375 14.8701 7.69777 13.6493 8.20346C12.4284 8.70915 11.3191 9.45035 10.3847 10.3847C9.45036 11.3191 8.70916 12.4284 8.20347 13.6492C7.69778 14.8701 7.43751 16.1786 7.43751 17.5C7.43751 18.8214 7.69778 20.1299 8.20347 21.3508C8.70916 22.5716 9.45036 23.6809 10.3847 24.6153C11.3191 25.5497 12.4284 26.2909 13.6493 26.7965C14.8701 27.3022 16.1786 27.5625 17.5 27.5625C20.1687 27.5625 22.7282 26.5023 24.6153 24.6153C26.5024 22.7282 27.5625 20.1687 27.5625 17.5C27.5625 14.8313 26.5024 12.2718 24.6153 10.3847C22.7282 8.49765 20.1687 7.4375 17.5 7.4375Z" fill="black"/>
<path d="M23.464 18.114H19.02V22.668H16.688V18.114H12.244V16.002H16.688V11.448H19.02V16.002H23.464V18.114Z" fill="black"/>
</svg>
